<?xml version="1.0" encoding="utf-8"?>
<!-- Generator: Adobe Illustrator 19.0.0, SVG Export Plug-In . SVG Version: 6.00 Build 0)  -->
<svg version="1.1" xmlns="http://www.w3.org/2000/svg" xmlns:xlink="http://www.w3.org/1999/xlink" x="0px" y="0px"
	 viewBox="-350 212 1405 438" style="enable-background:new -350 212 1405 438;" xml:space="preserve">
<g id="Capa_1">
</g>
<g id="Capa_1_copy">
	<path d="M8.7,212c0.5,3.7,3.6,6.5,7.4,6.5h25l-10.7,10.7c-2.9,2.9-2.9,7.7,0,10.6c1.5,1.5,3.4,2.2,5.3,2.2s3.8-0.7,5.3-2.2
		l21.3-21.3h35l-15.2,16.4c-2.8,3-2.6,7.8,0.4,10.6c1.4,1.3,3.3,2,5.1,2c0,0,0.1,0,0.1,0c0,0,0,0,0.1,0c0,0,0,0,0.1,0l22-0.1
		l-25.1,25.1H54.1c-4.1,0-7.5,3.4-7.5,7.5c0,4.1,3.4,7.5,7.5,7.5h15.6l-17.4,17.4c-2.9,2.9-2.9,7.7,0,10.6c1.5,1.5,3.4,2.2,5.3,2.2
		c1.9,0,3.7-0.7,5.1-2.2l17-17.2v15.2c0,4.1,3.4,7.5,7.5,7.5c4.1,0,7.5-3.4,7.5-7.5v-30.2l25.4-25.3l1,24.4c0.1,4,3.5,7.3,7.5,7.2
		c1.4,0,2.8-0.5,4.3-1.5c1.1-0.8,15.7-15.8,15.7-15.8v35.4l-21,21.1c-2.9,2.9-2.8,7.7,0.1,10.6c1.5,1.5,3.4,2.2,5.3,2.2
		c1.9,0,3.7-0.7,5.2-2.2l10.4-10.5v24.6c0,4.1,3.4,7.5,7.5,7.5c4.1,0,7.5-3.4,7.5-7.5v-25.3l11.4,11.2c1.5,1.5,3.5,2.2,5.4,2.2
		c1.9,0,3.9-0.7,5.3-2.2c2.9-2.9,2.8-7.7-0.1-10.6l-22-21.8v-35.7c0,0,13.7,12.9,15.9,15c2.2,2.1,3.9,3.2,6.5,3.2c0,0,0,0,0,0
		c4.1,0,7.5-3.6,7.4-7.7l-0.3-23.7l24.4,24.5v30.9c0,4.1,3.4,7.5,7.5,7.5c4.1,0,7.5-3.4,7.5-7.5v-15.9l18.1,17.9
		c1.5,1.5,3.5,2.2,5.4,2.2c1.9,0,3.9-0.7,5.3-2.2c2.9-2.9,2.9-7.7,0-10.6l-17.4-17.4H259c4.1,0,7.5-3.4,7.5-7.5
		c0-4.1-3.4-7.5-7.5-7.5h-29.9l-25.7-25.7l23-0.8c0.1,0,0.2,0,0.2,0c0,0,0.1,0,0.1,0c4-0.3,7-3.7,6.9-7.7c-0.1-2.4-1.3-4.5-3.2-5.8
		l-13.8-13.8h34.8l21.3,21.3c1.5,1.5,3.4,2.2,5.3,2.2c1.9,0,3.8-0.7,5.3-2.2c2.9-2.9,2.9-7.7,0-10.6l-10.7-10.7H297
		c3.8,0,6.9-2.8,7.4-6.5H8.7z M124.8,232.3l-20,0.1l13-14h20.8L124.8,232.3z M148.7,250.9l-13.3,13.7l-0.9-21l14.1-14.2V250.9z
		 M163.7,250.8v-22.2l14.4,14.3l0.2,21.3L163.7,250.8z M188.9,232.3l-13.8-13.8h20.3l13.1,13.1L188.9,232.3z"/>
	<path d="M-22.8,650c-0.5-3.7-3.6-6.5-7.4-6.5h-25l10.7-10.7c2.9-2.9,2.9-7.7,0-10.6c-1.5-1.5-3.4-2.2-5.3-2.2s-3.8,0.7-5.3,2.2
		l-21.3,21.3h-35l15.2-16.4c2.8-3,2.6-7.8-0.4-10.6c-1.4-1.3-3.3-2-5.1-2c0,0-0.1,0-0.1,0c0,0,0,0-0.1,0c0,0,0,0-0.1,0l-22,0.1
		l25.1-25.1h30.6c4.1,0,7.5-3.4,7.5-7.5c0-4.1-3.4-7.5-7.5-7.5h-15.6l17.4-17.4c2.9-2.9,2.9-7.7,0-10.6c-1.5-1.5-3.4-2.2-5.3-2.2
		c-1.9,0-3.7,0.7-5.1,2.2l-17,17.2v-15.2c0-4.1-3.4-7.5-7.5-7.5c-4.1,0-7.5,3.4-7.5,7.5v30.2l-25.4,25.3l-1-24.4
		c-0.1-4-3.5-7.3-7.5-7.2c-1.4,0-2.8,0.5-4.3,1.5c-1.1,0.8-15.7,15.8-15.7,15.8v-35.4l21-21.1c2.9-2.9,2.8-7.7-0.1-10.6
		c-1.5-1.5-3.4-2.2-5.3-2.2c-1.9,0-3.7,0.7-5.2,2.2l-10.4,10.5v-24.6c0-4.1-3.4-7.5-7.5-7.5c-4.1,0-7.5,3.4-7.5,7.5v25.3l-11.4-11.2
		c-1.5-1.5-3.5-2.2-5.4-2.2c-1.9,0-3.9,0.7-5.3,2.2c-2.9,2.9-2.8,7.7,0.1,10.6l22,21.8v35.7c0,0-13.7-12.9-15.9-15
		c-2.2-2.1-3.9-3.2-6.5-3.2c0,0,0,0,0,0c-4.1,0-7.5,3.6-7.4,7.7l0.3,23.7l-24.4-24.5v-30.9c0-4.1-3.4-7.5-7.5-7.5
		c-4.1,0-7.5,3.4-7.5,7.5v15.9l-18.1-17.9c-1.5-1.5-3.5-2.2-5.4-2.2c-1.9,0-3.9,0.7-5.3,2.2c-2.9,2.9-2.9,7.7,0,10.6l17.4,17.4
		h-14.9c-4.1,0-7.5,3.4-7.5,7.5c0,4.1,3.4,7.5,7.5,7.5h29.9l25.7,25.7l-23,0.8c-0.1,0-0.2,0-0.2,0c0,0-0.1,0-0.1,0
		c-4,0.3-7,3.7-6.9,7.7c0.1,2.4,1.3,4.5,3.2,5.8l13.8,13.8h-34.8l-21.3-21.3c-1.5-1.5-3.4-2.2-5.3-2.2c-1.9,0-3.8,0.7-5.3,2.2
		c-2.9,2.9-2.9,7.7,0,10.6l10.7,10.7H-311c-3.8,0-6.9,2.8-7.4,6.5H-22.8z M-138.9,629.7l20-0.1l-13,14h-20.8L-138.9,629.7z
		 M-162.8,611.1l13.3-13.7l0.9,21l-14.1,14.2V611.1z M-177.8,611.2v22.2l-14.4-14.3l-0.2-21.3L-177.8,611.2z M-203,629.7l13.8,13.8
		h-20.3l-13.1-13.1L-203,629.7z"/>
	<rect x="331" y="212" width="724" height="438"/>
</g>
</svg>
