<?xml version="1.0" encoding="utf-8"?>
<!-- Generator: Adobe Illustrator 19.0.0, SVG Export Plug-In . SVG Version: 6.00 Build 0)  -->
<svg version="1.1" id="Layer_1" xmlns="http://www.w3.org/2000/svg" xmlns:xlink="http://www.w3.org/1999/xlink" x="0px" y="0px"
	 viewBox="0 0 669 981" style="enable-background:new 0 0 669 981;" xml:space="preserve">
<style type="text/css">
	.st0{fill:#FFFFFF;}
</style>
<g>
	<g>
		<path class="st0" d="M290,982c-11.4-0.7-22.9-1.6-34.4-2c-18.7-0.7-37.1-2.9-54.8-9.6c-9-3.4-18.3-6.2-27.5-9.1
			c-15-4.7-30-6.3-45-0.1c-1.3,0.5-3,0.8-4.4,0.5c-10.2-2.5-19.7-7.4-24.3-16.9c-8.8-18.2-16.7-37-20.1-57.3c-0.4-2.4-0.5-5-0.6-7.5
			c-0.1-5,2-8.2,6.9-10.3c18.1-7.5,36.4-14.7,54.1-23.2c15.4-7.5,16.1-6.9,9.9-24.8c-2.9-8.3-6.9-16.2-11.1-24
			c-4-7.6-9.6-13.4-18.3-16.6c-6.7-2.5-12.5-7.5-18.4-11.8c-6.8-5-13.6-10.3-19.8-16c-2.1-1.9-3-5.6-3.7-8.6
			c-0.4-1.9,0.5-4.3,1.1-6.3c2.6-9.2,1.8-18-1.6-26.9c-5.1-13.6-4.9-13.7,8.8-18.7c35-12.7,69.9-25.8,105.2-37.8
			c10.2-3.4,21.5-3.9,32.4-4.9c12.2-1.2,24.6-0.9,36.8-2.3c11.8-1.3,19.5-8.7,23.6-19.8c2.7-7.3,5.7-14.6,7.7-22.1
			c1.5-5.7,2.7-12,1.9-17.7c-3.3-24,3-45.4,15.6-65.6c7.4-11.8,14.6-23.9,21.3-36.1c8.4-15.2,9.6-30.9,1.1-46.7
			c-2.6-4.8-4.7-9.9-7.3-14.7c-10-18.4-21.6-35.5-35.5-51.2c-8.4-9.4-18.2-14.1-31-14.3c-24.6-0.4-49.3-1.1-73.9-2.9
			c-19.1-1.4-38.1-4-57-7c-6.5-1.1-12.8-4.7-18.5-8.2c-16.8-10.1-33.4-20.7-50-31.2c-1.7-1.1-3.3-2.2-5.6-3.6
			c-0.2,4.4,0,8.4-0.7,12.2c-0.7,3.7-1.9,7.3-3.4,10.8c-0.5,1.3-2.6,2.7-3.8,2.6c-1.1-0.1-2.4-2.1-2.8-3.6c-0.9-3-1.3-6.2-2-9.2
			c-0.4-1.9-1.2-3.7-2-6.1c-7.9,8.4-15.3,16-11.4,28.4c1.5,4.7,1.9,9.8,2.3,14.8c0.1,1.7-1.4,3.6-2.2,5.4c-1.2-1.4-2.4-2.8-3.5-4.4
			c-0.5-0.8-0.7-1.8-1.2-3.2c-1.3,2.1-2.3,3.8-4,6.6c-6.1-8.6-5.3-18.2-7.7-27.5c-2.3,4.9-4.3,9.3-6.4,13.6c-0.7-0.1-1.3-0.2-2-0.3
			c-0.3-2.1-1.2-4.3-0.8-6.3c0.8-4.2,1.5-8.7,3.4-12.4c8.1-15.9,17.5-31,29.8-44.1c5.9-6.3,12.4-8.1,20.6-4.8
			c19.4,7.9,38.9,15.7,58.5,23.1c26.1,9.9,52.9,16,81.1,13.5c9.8-0.9,19.4-2.8,29.1-4.2c16.9-2.5,33.9-4.9,50.8-7.4
			c1.3-0.2,2.6-0.3,5-0.5c-9.2-8.3-9.8-18.5-10-29.2c-0.1-4.4-2.7-9.2-5.2-13.1c-7.6-12.2-11.9-25.2-12.2-39.6
			c-0.2-9.9,2.9-18.7,10.3-25c19.2-16.3,41.5-22.9,66.4-18.8c10.4,1.7,18.7,7.5,23.9,17.2c4.2,7.9,11.1,12.1,19.7,13.9
			c5.7,1.2,6.6,2.8,2.8,7.1c-3.5,3.9-3.3,6.7-0.2,10.6c3.5,4.4,6.4,9.3,9.5,14.1c3.8,5.9,2.5,11.3-4.1,13.8
			c-7.9,3-16.2,5.1-24.3,7.3c-5.9,1.6-8,4.3-6.9,10.4c0.4,2.2,1.1,4.8,2.5,6.4c5.5,6.4,11,13,17.3,18.6c7.9,6.9,13.4,5.4,17.9-4.1
			c2.3-4.8,4.1-9.8,6.4-14.6c5.3-11.5,10.3-23,16.1-34.3c8.4-16.3,10.9-34,13.8-51.8c3.4-20.7-2.6-39.8-9.5-58.5
			c-7-18.8-15.5-37.1-23.4-55.5c-3.8-8.8-10.7-13.5-20-14.5c-9.4-1.1-18.8-1.6-28.3-2.2c-5.3-0.4-10.7-0.1-15.9-0.9
			c-2-0.3-3.8-2.6-5.6-4c1.7-1.3,3.3-3.3,5.2-3.7c4.9-1.1,9.9-1.4,14.8-2c2.4-0.3,4.9-0.6,8.9-1.1c-2.4-4.3-4.4-7.7-6.1-11.3
			c-2.1-4.3-5.4-5-9.8-4.6c-3.2,0.3-7.7,1.7-9-2.5c-0.3-1.1,4.6-3.7,7.1-5.6c0.7-0.5,1.5-0.7,2.6-1.2C330.3,17.4,322.3,12,321.5,1
			c2.8,1.9,4.5,2.7,5.9,4c5.1,4.8,10.3,9.5,15.1,14.5c5.2,5.4,11.3,8.4,18.7,9.5c5.6,0.8,11.1,2.3,16.5,3.8
			c10.4,2.9,18.9,8.6,25.6,17.2c24,31,43,64.9,58.4,100.8c4.9,11.5,4.2,23.1,3,34.9c-2.4,23.9-4.1,47.9-8.2,71.4
			c-3,17.3-9.3,34-14.1,50.9c-1,3.5-1.9,7-2.8,10.6c-2.1,8.2-0.7,15.7,3.8,22.9c12.2,19.8,12.9,17.9,6.4,42.9
			c-10,38.5-12.4,77.5-8.2,117c1.7,16.2,4.1,32.4,6.2,48.5c0.1,1.1,0.5,2.1,0.9,3.6c3.8-4.4,7.1-8.6,10.8-12.4
			c8.1-8.5,17.1-14.7,29.9-15c6-0.2,12.6-3.2,17.8-6.6c11.3-7.3,22-15.7,32.8-23.7c12.5-9.3,17.9-22.5,19.7-37.4
			c2.9-24.7,16.1-44.4,30-63.8c1.1-1.5,2.5-2.7,3.9-3.9c6-5.2,10.8-5.8,16.3-0.2c8.9,9.2,17.7,18.6,25,29.1
			c18.6,26.8,30.9,56.2,34.2,89c0.1,0.8,0.5,1.5,0.8,2.3c0,7.3,0,14.7,0,22c-1.8,16.1-9.2,30-17.4,43.6c-3.9,6.6-4.8,14-4.6,21.7
			c0.2,5.1,0.5,10.5-0.9,15.4c-4.8,16.7-10,33.4-15.8,49.9c-7.9,22.3-14.3,44.7-12.5,68.7c0.2,2.6-0.2,5.3-0.5,8
			c-2.1,19.5-8.4,38-14.8,56.3c-10.8,30.8-22.8,61.1-28.8,93.3c-0.7,3.9-3.4,5.5-7,6.1c-4.3,0.7-8.6,1.2-12.8,2.1
			c-3.8,0.8-5.8,3.4-5.2,7.3c0.6,3.7,1.4,7.5,2.8,11.1c4.6,12.1,9.7,24.1,14.3,36.2c2.1,5.6,0.6,8.4-5.2,9.2
			c-6.1,0.9-12.3,0.6-18.4,1c-1.4,0.1-3.8,0.6-4.1,1.6c-2.1,5.7-6.6,5.4-11.4,5.4c-3.3,0-4.7-1.2-5.6-4.2
			c-1.6-5.4-3.3-10.8-5.4-16.1c-0.6-1.5-2.5-3.3-3.9-3.4c-12.3-0.9-24.6-1.7-36.9-1.9c-5.1-0.1-10.3,0.9-15.3,2
			c-1.8,0.4-4.1,2.1-4.7,3.8c-1.4,3.8-4.2,5-7.7,6.3c-10,3.9-19.9,8.4-29.8,12.4c-6.3,2.5-12.6,5.5-19.1,6.9
			c-9.7,2.1-19.7,3.2-29.6,4.3c-7.9,0.9-15.9,1.3-23.8,2C327.3,982,308.7,982,290,982z"/>
	</g>
</g>
</svg>
